<svg xmlns="http://www.w3.org/2000/svg" viewBox="0 0 512 512"><circle cx="256" cy="256" r="256" fill="#f0f0f0"/><g fill="#0052b4"><path d="M52.9 100.1c-20.1 26.2-34.3 57-40.9 90.3h114.1L52.9 100.1z"/><path d="M499.1 190.4c-6.6-33.3-20.8-64.1-40.9-90.3l-73.2 90.3h114.1z"/><path d="M12 321.6c6.6 33.3 20.8 64.1 40.9 90.3l73.2-90.3H12z"/><path d="M411.9 52.9c-26.2-20.1-57-34.3-90.3-40.9v114.1l90.3-73.2z"/><path d="M100.1 459.1c26.2 20.1 57 34.3 90.3 40.9V385.9l-90.3 73.2z"/><path d="M190.4 12c-33.3 6.6-64.1 20.8-90.3 40.9l90.3 73.2V12z"/><path d="M321.6 500c33.3-6.6 64.1-20.8 90.3-40.9l-90.3-73.2V500z"/><path d="M385.9 321.6l73.2 90.3c20.1-26.2 34.3-57 40.9-90.3H385.9z"/></g><g fill="#d80027"><path d="M509.8 222.6H289.4V2.2A258.6 258.6 0 00256 0c-11.3 0-22.5.7-33.4 2.2v220.4H2.2A258.6 258.6 0 000 256c0 11.3.7 22.5 2.2 33.4h220.4v220.4a258.4 258.4 0 0066.8 0V289.4h220.4a258.4 258.4 0 000-66.8z"/><path d="M321.6 321.6L425 425a257 257 0 0023.6-21.2l-80.4-82.2h-46.6z"/><path d="M190.4 321.6L87 425a257 257 0 0021.2 23.6l82.2-80.4v-46.6z"/><path d="M190.4 190.4L87 87a257 257 0 00-23.6 21.2l80.4 82.2h46.6z"/><path d="M321.6 190.4L425 87a257 257 0 00-21.2-23.6l-82.2 80.4v46.6z"/></g></svg>